PathFileType	4	(X/Y/Z)	C:\Users\WrightLab\Desktop\Jo\P2_Trial38.trc
DataRate	CameraRate	NumFrames	NumMarkers	Units	OrigDataRate	OrigDataStartFrame	OrigNumFrames
100.00	100.00	      8	19	mm	100.00	413	      1099
Frame#	Time	Headset_Front			Headset_Back			Headset_Left			Headset_Right			Left_Shoulder			Right_Shoulder			Sternum			C7			Left Elbow			Right Elbow			Left Wrist			Right Wrist			Left ASIS			Right ASIS			S2			Left Knee			Right Knee			Left Ankle			Right Ankle			
		X1	Y1	Z1	X2	Y2	Z2	X3	Y3	Z3	X4	Y4	Z4	X5	Y5	Z5	X6	Y6	Z6	X7	Y7	Z7	X8	Y8	Z8	X9	Y9	Z9	X10	Y10	Z10	X11	Y11	Z11	X12	Y12	Z12	X13	Y13	Z13	X14	Y14	Z14	X15	Y15	Z15	X16	Y16	Z16	X17	Y17	Z17	X18	Y18	Z18	X19	Y19	Z19	

413	4.120	187.07253	1447.03357	961.92419	184.18393	1695.44763	1145.87561	74.30102	1577.43494	1083.63525	290.97870	1538.03809	1017.12634	47.00539	1442.15808	1162.39380	365.61621	1459.60425	1223.92078	227.98965	1333.19751	1133.46753	197.23221	1451.19128	1306.88538	-49.40145	1091.08508	1148.08154	480.67181	1144.09265	1235.65930	-72.74570	880.16541	1137.74036	517.92474	926.60126	1108.47046	198.56200	1037.29175	1097.38757	326.55652	1020.51068	1138.26355	162.91020	965.54553	1362.22046	180.35722	476.48315	1071.09644	390.18643	577.81757	1418.92688	220.04532	131.54906	998.50671	346.94586	179.55859	1584.83118	
414	4.130	185.44263	1448.70422	952.87866	184.44778	1696.86865	1138.25037	73.97644	1578.77405	1077.02112	290.34439	1540.00720	1008.52460	47.06717	1443.67822	1155.67712	366.27017	1461.05884	1214.08948	228.44778	1335.14233	1124.45154	198.91237	1451.75500	1299.46155	-47.45239	1092.49915	1141.87427	480.71683	1145.34216	1224.37781	-68.63677	883.54401	1126.35327	515.69299	926.78662	1096.15186	198.14192	1039.21387	1087.70569	325.82816	1021.83563	1128.81433	163.37756	966.00067	1352.44312	178.16562	476.93530	1062.93579	390.55960	577.31165	1402.77930	218.35432	128.28333	998.65900	348.53406	185.95000	1575.05603	
415	4.140	184.38934	1450.59229	945.35583	184.38393	1698.06860	1131.45654	73.44715	1579.80164	1070.70459	289.65497	1541.97534	1001.47650	46.98931	1444.82385	1148.81934	367.35947	1462.11560	1205.12158	227.81703	1336.58521	1113.67932	200.31694	1452.26587	1291.11658	-45.90379	1093.75684	1135.57849	481.43628	1145.36365	1212.80627	-64.80357	887.70624	1115.25574	513.43304	927.08496	1084.27478	196.30811	1038.87061	1077.56018	325.46228	1023.08112	1120.19031	163.18404	966.21436	1342.93103	175.57018	477.73401	1055.36682	391.94702	578.05444	1386.56104	216.46786	126.01192	998.91418	349.05258	193.47403	1562.73242	
416	4.150	183.72665	1452.53003	937.54480	185.18533	1699.35022	1124.26672	72.93102	1581.47510	1063.94885	289.06305	1543.41943	993.17584	46.94764	1446.17017	1142.80933	367.87949	1463.08533	1195.78394	227.82756	1338.24365	1104.89185	201.94054	1452.90601	1283.26038	-44.37788	1094.55969	1129.91089	481.51105	1146.58032	1202.26282	-62.70481	892.29889	1104.68188	511.32596	928.28992	1072.60071	196.74149	1040.25574	1069.11487	325.14206	1024.99500	1109.81189	163.68582	966.31708	1333.67542	172.98814	478.20828	1047.09924	393.47003	578.32941	1370.68115	213.97018	124.29240	1000.07306	350.33231	200.19890	1550.69543	
417	4.160	182.95271	1454.24866	929.76617	183.66933	1700.96375	1118.02551	73.35109	1582.65894	1057.31787	288.16666	1545.28308	985.10114	46.91497	1447.52100	1136.61499	368.40952	1463.69141	1186.17139	227.01292	1340.66077	1095.45337	202.74443	1453.76392	1275.71375	-43.34052	1095.43103	1124.64832	481.21841	1146.84619	1191.06812	-55.95783	894.49158	1092.70789	509.61765	928.47565	1059.43054	196.01631	1040.50403	1061.01343	325.01517	1026.28992	1100.94910	164.81146	966.58344	1324.67590	169.95827	478.45721	1039.91113	395.20386	578.78656	1354.10925	211.11781	123.85735	1001.66199	350.19794	207.01694	1536.98743	
418	4.170	182.42041	1456.86560	923.20734	184.77512	1702.27002	1111.00684	72.61107	1584.64673	1050.74854	286.87372	1546.77466	977.56128	46.23536	1448.71667	1131.38123	369.79962	1464.07068	1178.01147	226.77744	1341.61987	1087.14636	204.67422	1454.37634	1268.10742	-41.27548	1096.29138	1119.10400	480.84244	1146.39404	1180.47742	-55.69844	899.72186	1083.23621	506.93469	928.70703	1048.84119	194.78296	1041.21558	1052.14783	324.54703	1026.96301	1091.92639	165.32745	967.26837	1316.15161	167.13885	478.78235	1032.30493	396.30154	576.61353	1336.40417	208.34911	123.20239	1002.96075	351.37384	212.72267	1524.95703	
419	4.180	181.03043	1458.24109	914.50916	184.17604	1703.42505	1104.40979	72.40446	1586.04285	1044.20093	286.30322	1549.02014	969.51105	46.21226	1449.81702	1125.31921	369.62451	1464.81604	1168.11572	225.65050	1342.75415	1079.29138	205.50423	1455.42627	1260.56946	-39.53467	1097.00427	1113.19995	480.68201	1146.67224	1169.87012	-53.91280	904.29333	1072.69714	504.43488	928.17303	1038.10901	194.65199	1041.29248	1043.50098	323.94342	1028.25427	1082.09692	166.66388	967.83221	1307.79480	163.72699	478.48843	1025.58069	397.90555	575.57385	1319.34717	205.32660	122.93342	1005.65796	354.66568	219.70500	1509.37244	
420	4.190	179.69476	1460.43921	907.17950	183.80942	1704.25171	1098.40332	72.03297	1587.24072	1037.63049	285.47070	1550.89941	961.54767	45.68455	1451.50623	1120.10999	369.66690	1465.38086	1157.86584	224.81229	1344.06091	1071.92419	206.96100	1456.07361	1253.30066	-38.71362	1098.04126	1108.43555	479.77930	1147.12781	1159.73010	-50.08792	907.29572	1061.84595	501.70337	928.41956	1027.47522	193.35629	1041.89587	1036.24658	323.64178	1028.95081	1073.52051	167.51358	968.71533	1299.90002	160.19469	478.39050	1018.67163	399.35419	573.57819	1302.69666	202.21379	123.18608	1006.51080	357.66318	226.43578	1495.14282	
